<svg width="87" height="86" viewBox="0 0 87 86" fill="none" xmlns="http://www.w3.org/2000/svg">
<path fill-rule="evenodd" clip-rule="evenodd" d="M61.9527 23.5167C61.9527 21.1431 63.9015 19.2167 66.3027 19.2167C68.7039 19.2167 70.6527 21.1431 70.6527 23.5167C70.6527 25.8903 68.7039 27.8167 66.3027 27.8167C63.9015 27.8167 61.9527 25.8903 61.9527 23.5167ZM78.3 47.3L63.8841 33.8153L39.4675 58.1833L24.3904 43.0556L8.7 58.1571V8.6H78.3V47.3ZM78.3 77.4H8.7V70.3138L24.2643 55.5473L39.3023 70.3138L39.4154 70.2487L39.5067 70.3138L63.4926 46.2082L78.3 61.2404V77.4ZM0 86H87V0H0V86Z" fill="#8581CB"/>
</svg>
