<svg width="100" height="109" viewBox="0 0 100 109" fill="none" xmlns="http://www.w3.org/2000/svg">
<path d="M48.1014 60.5273L37.9696 56.1097L6.04733 86.2287L16.1791 90.6463L48.1014 60.5273Z" fill="#3CE7B6"/>
<path d="M48.1014 60.5273L58.2332 64.945L58.273 109L48.1413 104.582L48.1014 60.5273Z" fill="#3CE7B6"/>
<path d="M56.8733 53.9387L58.1407 64.9848L100 77.769L98.7327 66.7229L56.8733 53.9387Z" fill="#3CE7B6"/>
<path d="M56.8733 53.9387L55.606 42.8926L93.4674 20.8304L94.7347 31.8765L56.8733 53.9387Z" fill="#3CE7B6"/>
<path d="M46.7656 49.5315L37.9011 56.16L0 34.1671L8.86444 27.5387L46.7656 49.5315Z" fill="#3CE7B6"/>
<path d="M46.7656 49.5315L55.63 42.9032L45.693 0L36.8286 6.62844L46.7656 49.5315Z" fill="#3CE7B6"/>
</svg>
