<svg width="15" height="15" viewBox="0 0 15 15" fill="none" xmlns="http://www.w3.org/2000/svg">
<path d="M10.1053 9.34184L9.77495 9.68822C9.77495 9.68822 8.98989 10.5116 6.84704 8.26419C4.70421 6.01682 5.48925 5.19347 5.48925 5.19347L5.69724 4.97534C6.20962 4.43799 6.25792 3.57527 5.81089 2.94545L4.89647 1.65709C4.34319 0.877557 3.27407 0.774581 2.63991 1.43967L1.5017 2.63341C1.18726 2.96319 0.97654 3.39069 1.00209 3.86492C1.06747 5.07818 1.58789 7.68853 4.49191 10.7342C7.57147 13.964 10.461 14.0924 11.6427 13.9762C12.0164 13.9394 12.3414 13.7387 12.6034 13.464L13.6335 12.3836C14.3289 11.6543 14.1328 10.4041 13.2431 9.89396L11.8577 9.09956C11.2735 8.76459 10.5618 8.86298 10.1053 9.34184Z" stroke="white" stroke-width="0.75" stroke-linecap="square" stroke-linejoin="round"/>
</svg>
