<svg width="34" height="34" viewBox="0 0 34 34" fill="none" xmlns="http://www.w3.org/2000/svg">
<circle cx="17" cy="17" r="16.75" transform="rotate(90 17 17)" stroke="white" stroke-width="0.5"/>
<path d="M16.7348 23.7652C16.8813 23.9116 17.1187 23.9116 17.2652 23.7652L19.6517 21.3787C19.7981 21.2322 19.7981 20.9948 19.6517 20.8483C19.5052 20.7019 19.2678 20.7019 19.1213 20.8483L17 22.9697L14.8787 20.8483C14.7322 20.7019 14.4948 20.7019 14.3483 20.8483C14.2019 20.9948 14.2019 21.2322 14.3483 21.3787L16.7348 23.7652ZM16.625 11.3125C16.625 11.5196 16.7929 11.6875 17 11.6875C17.2071 11.6875 17.375 11.5196 17.375 11.3125H17H16.625ZM17.375 12.9375C17.375 12.7304 17.2071 12.5625 17 12.5625C16.7929 12.5625 16.625 12.7304 16.625 12.9375H17H17.375ZM16.625 14.5625C16.625 14.7696 16.7929 14.9375 17 14.9375C17.2071 14.9375 17.375 14.7696 17.375 14.5625H17H16.625ZM17.375 16.1875C17.375 15.9804 17.2071 15.8125 17 15.8125C16.7929 15.8125 16.625 15.9804 16.625 16.1875H17H17.375ZM16.625 17.8125C16.625 18.0196 16.7929 18.1875 17 18.1875C17.2071 18.1875 17.375 18.0196 17.375 17.8125H17H16.625ZM17.375 19.4375C17.375 19.2304 17.2071 19.0625 17 19.0625C16.7929 19.0625 16.625 19.2304 16.625 19.4375H17H17.375ZM16.625 21.0625C16.625 21.2696 16.7929 21.4375 17 21.4375C17.2071 21.4375 17.375 21.2696 17.375 21.0625H17H16.625ZM17.375 22.6875C17.375 22.4804 17.2071 22.3125 17 22.3125C16.7929 22.3125 16.625 22.4804 16.625 22.6875H17H17.375ZM17 10.5H16.625V11.3125H17H17.375V10.5H17ZM17 12.9375H16.625V14.5625H17H17.375V12.9375H17ZM17 16.1875H16.625V17.8125H17H17.375V16.1875H17ZM17 19.4375H16.625V21.0625H17H17.375V19.4375H17ZM17 22.6875H16.625V23.5H17H17.375V22.6875H17Z" fill="white"/>
</svg>
