<svg width="27" height="27" viewBox="0 0 27 27" fill="none" xmlns="http://www.w3.org/2000/svg">
<path d="M11.6941 17.1549H8.15513C7.02713 17.1549 6.06579 16.7575 5.27113 15.9629C4.47646 15.1682 4.07879 14.2065 4.07813 13.0779C4.07746 11.9492 4.47513 10.9875 5.27113 10.1929C6.06713 9.39821 7.02846 9.00054 8.15513 8.99988H11.6941V9.99988H8.15513C7.30846 9.99988 6.58413 10.3012 5.98213 10.9039C5.37946 11.5072 5.07813 12.2319 5.07813 13.0779C5.07813 13.9239 5.37946 14.6482 5.98213 15.2509C6.58479 15.8535 7.30913 16.1549 8.15513 16.1549H11.6941V17.1549ZM9.57813 13.5779V12.5779H16.5781V13.5779H9.57813ZM14.4631 17.1549V16.1549H18.0011C18.8478 16.1549 19.5721 15.8535 20.1741 15.2509C20.7768 14.6482 21.0781 13.9239 21.0781 13.0779C21.0781 12.2319 20.7768 11.5075 20.1741 10.9049C19.5715 10.3022 18.8471 10.0009 18.0011 10.0009H14.4631V9.00088H18.0011C19.1291 9.00088 20.0908 9.39821 20.8861 10.1929C21.6815 10.9875 22.0788 11.9492 22.0781 13.0779C22.0775 14.2065 21.6798 15.1682 20.8851 15.9629C20.0905 16.7575 19.1291 17.1552 18.0011 17.1559L14.4631 17.1549Z" fill="#8581CB"/>
</svg>
