<svg width="138" height="59" viewBox="0 0 138 59" fill="none" xmlns="http://www.w3.org/2000/svg">
<path d="M32.7207 58.6006H26.6953V33.9434H32.7207V58.6006ZM51.5176 51.9297L59.043 33.9434H65.5918L55.2646 58.6006H47.7656L37.4434 33.9434H43.9873L51.5176 51.9297ZM89.7852 58.6006H83.2412L75.7109 40.6152L68.1807 58.6006H61.6367L71.959 33.9434H79.4629L89.7852 58.6006ZM110.987 39.5283H102.321C100.755 39.5297 99.2537 40.1753 98.1465 41.3232C97.0394 42.4711 96.4165 44.0272 96.415 45.6504C96.4164 47.2738 97.0392 48.8306 98.1465 49.9785C99.2537 51.1264 100.755 51.772 102.321 51.7734H110.987V58.5957H102.321C99.0087 58.5929 95.8321 57.2276 93.4893 54.7998C91.1465 52.372 89.8284 49.0796 89.8242 45.6455C89.8283 42.2114 91.1465 38.9191 93.4893 36.4912C95.8321 34.0634 99.0087 32.6982 102.321 32.6953L110.987 32.6787V39.5283ZM125.246 32.6953C128.559 32.6982 131.735 34.0634 134.078 36.4912C136.421 38.919 137.739 42.2114 137.743 45.6455C137.739 49.0796 136.421 52.372 134.078 54.7998C131.735 57.2277 128.559 58.5929 125.246 58.5957C121.94 58.5829 118.774 57.213 116.439 54.7861C114.105 52.3593 112.794 49.0725 112.791 45.6455C112.795 42.2187 114.108 38.9325 116.441 36.5059C118.775 34.0794 121.941 32.7096 125.246 32.6953ZM45.7676 3.59375L47.4541 13.4336L44.2891 11.9277L43.251 11.4482C40.9222 16.9639 37.4393 21.874 33.0547 25.8223C28.67 29.7705 23.4933 32.6589 17.8994 34.2773V58.5742H11.874V35.5195C11.2929 35.5895 10.7065 35.6537 10.1201 35.7021C5.61038 36.0572 2.24742 36.0898 1.15234 36.0898H0.773438L0.84082 29.7949C0.887527 29.7949 4.53063 29.8327 9.66309 29.4238C15.7146 28.9777 21.5331 26.8221 26.4863 23.1904C31.4394 19.5588 35.3379 14.5897 37.7598 8.82324L36.9971 8.45703L33.832 6.95117L42.1348 1.86621L45.1602 0L45.7676 3.59375ZM125.246 39.5225C123.681 39.5254 122.181 40.1716 121.075 41.3193C119.969 42.4671 119.347 44.023 119.346 45.6455C119.346 47.2682 119.967 48.8247 121.073 49.9727C122.18 51.1207 123.681 51.7661 125.246 51.7676C126.812 51.7662 128.314 51.1206 129.421 49.9727C130.528 48.8248 131.151 47.2687 131.152 45.6455C131.151 44.0221 130.528 42.4653 129.421 41.3174C128.314 40.1695 126.812 39.5239 125.246 39.5225ZM135.52 15.7686C136.136 15.7379 136.744 15.928 137.242 16.3066C137.461 16.5248 137.615 16.8043 137.686 17.1104C137.756 17.4163 137.741 17.7369 137.642 18.0342H136.76C136.81 17.7384 136.77 17.4334 136.646 17.1621C136.438 16.8072 135.997 16.6241 135.317 16.624C134.872 16.5945 134.428 16.7213 134.061 16.9844C133.8 17.1918 133.617 17.4876 133.542 17.8193C133.498 17.959 133.5 18.1098 133.548 18.248C133.596 18.3864 133.687 18.5042 133.807 18.583C134.183 18.7541 134.577 18.8833 134.979 18.9697L135.888 19.1963C136.245 19.2649 136.583 19.4174 136.874 19.6426C137.06 19.8246 137.194 20.0576 137.258 20.3145C137.322 20.5714 137.315 20.8427 137.237 21.0957C137.178 21.4524 137.041 21.7904 136.837 22.084C136.633 22.3776 136.366 22.6192 136.059 22.79C135.429 23.1297 134.729 23.3036 134.02 23.2959C133.679 23.323 133.338 23.2749 133.017 23.1553C132.695 23.0357 132.402 22.847 132.156 22.6016C131.961 22.3478 131.829 22.0482 131.771 21.7295C131.714 21.4108 131.732 21.0822 131.824 20.7725H132.696C132.634 21.1013 132.659 21.4416 132.769 21.7568C132.981 22.2249 133.48 22.4619 134.264 22.4619C134.599 22.4661 134.932 22.4117 135.249 22.3008C135.503 22.2426 135.736 22.1105 135.92 21.9199C136.104 21.7294 136.231 21.4877 136.287 21.2246C136.34 21.0826 136.351 20.9277 136.318 20.7793C136.286 20.6309 136.212 20.4954 136.105 20.3906C135.789 20.1834 135.436 20.0427 135.067 19.9766L134.186 19.7559C133.763 19.6796 133.358 19.521 132.992 19.2881C132.806 19.131 132.669 18.9181 132.603 18.6787C132.536 18.4393 132.541 18.1843 132.618 17.9482C132.739 17.3221 133.08 16.7637 133.573 16.3818C134.134 15.9504 134.822 15.7336 135.52 15.7686ZM59.8154 16.8447H55.7051L55.2744 19.0029H59.0684L58.8916 19.8252H55.1035L54.6045 22.2471H58.7773L58.6064 23.0918H53.5254L54.9893 15.9736H59.9971L59.8154 16.8447ZM69.9629 18.6904L72.2617 15.9736H73.3721L70.3574 19.4385L72.0234 23.0918H70.8711L69.6201 20.1641L67.1191 23.0918H65.998L69.2002 19.4385L67.6064 15.9736H68.7744L69.9629 18.6904ZM99.0801 16.8447H94.9697L94.5391 19.002H98.333L98.1562 19.8252H94.3682L93.8701 22.2471H98.042L97.8711 23.0918H92.7852L94.2539 15.9736H99.2617L99.0801 16.8447ZM125.341 16.8184H123.032L121.739 23.0918H120.806L122.087 16.8184H119.768L119.944 15.9736H125.513L125.341 16.8184ZM110.539 15.9736C110.966 15.9544 111.392 16.0349 111.784 16.21C112.371 16.5113 112.578 17.0494 112.396 17.8887C112.32 18.2706 112.16 18.6293 111.93 18.9375C111.693 19.2152 111.401 19.4355 111.073 19.583C111.286 19.6734 111.467 19.83 111.592 20.0303C111.691 20.3207 111.705 20.6356 111.629 20.9336L111.468 21.8857C111.427 22.0855 111.407 22.2899 111.41 22.4941C111.421 22.72 111.488 22.8705 111.618 22.9297L111.592 23.0859H110.445C110.433 23.0075 110.433 22.927 110.445 22.8486C110.455 22.659 110.477 22.4705 110.513 22.2842L110.694 21.1055C110.772 20.6376 110.663 20.3313 110.388 20.1699C110.13 20.0591 109.851 20.0114 109.573 20.0303H107.456L106.833 23.0859H105.904L107.362 15.9736H110.539ZM84.2568 15.9629C84.5091 15.9445 84.7625 15.9833 84.999 16.0762C85.2355 16.1691 85.4497 16.314 85.627 16.501C85.781 16.7134 85.8832 16.9614 85.9248 17.2236C85.9663 17.4858 85.9466 17.7546 85.8662 18.0068C85.7593 18.5655 85.4798 19.0733 85.0713 19.4541C84.8478 19.6678 84.5857 19.8333 84.2998 19.9404C84.0138 20.0476 83.7099 20.0943 83.4062 20.0781H81.252L80.6191 23.0752H79.6797L81.1436 15.9629H84.2568ZM81.4131 19.2715H83.2705C83.6455 19.2793 84.0162 19.1845 84.3447 18.9971C84.5022 18.8862 84.6362 18.742 84.7363 18.5742C84.8363 18.4065 84.9013 18.2188 84.9268 18.0234C85.0015 17.8321 85.0089 17.6195 84.9482 17.4229C84.8876 17.2264 84.7626 17.058 84.5947 16.9473C84.3995 16.8607 84.1914 16.8099 83.9805 16.7969H81.9219L81.4131 19.2715ZM107.627 19.2285H109.918C110.249 19.2185 110.574 19.1265 110.865 18.959C111.025 18.8481 111.161 18.7029 111.262 18.5332C111.363 18.3633 111.428 18.1727 111.452 17.9746C111.556 17.4689 111.452 17.1248 111.125 16.9473C110.899 16.8333 110.649 16.7807 110.398 16.7959H108.12L107.627 19.2285Z" fill="#1C13A0"/>
</svg>
