<svg width="17" height="17" viewBox="0 0 17 17" fill="none" xmlns="http://www.w3.org/2000/svg">
<path d="M9 0.375C13.2112 0.375 16.625 3.78883 16.625 8C16.625 12.2112 13.2112 15.625 9 15.625C7.76103 15.625 6.59199 15.3293 5.55859 14.8057C5.36412 14.7073 5.13757 14.7304 4.97852 14.7598C4.79872 14.7929 4.59556 14.8568 4.3877 14.9336C3.97141 15.0874 3.47401 15.3167 3.00098 15.5312C2.51817 15.7502 2.06061 15.9548 1.69434 16.0781C1.58463 16.1151 1.48935 16.1391 1.41016 16.1572C1.4288 16.1151 1.44963 16.0675 1.47559 16.0156C1.62842 15.7102 1.86727 15.3219 2.12109 14.9111C2.36895 14.5101 2.63138 14.0875 2.81055 13.7393C2.89932 13.5667 2.97848 13.3935 3.02246 13.2393C3.04436 13.1624 3.06255 13.0729 3.0625 12.9814C3.06239 12.8912 3.04332 12.763 2.95508 12.6484C1.96408 11.3617 1.375 9.7501 1.375 8C1.375 3.78888 4.7889 0.375088 9 0.375Z" stroke="white" stroke-width="0.75"/>
</svg>
